<svg xmlns="http://www.w3.org/2000/svg" viewBox="0 0 600 600"><circle cx="300" cy="300" r="263.3" fill="#FFF"/><path d="M390.6 299.9c0-24.1-9.6-47.1-26.6-64.1s-40.1-26.6-64.1-26.6c-8.4 0-16.7 1.2-24.7 3.4-19.3 5.5-36.2 17.2-48.1 33.3-11.6 15.6-17.9 34.5-17.9 54 0 24.1 9.6 47.1 26.6 64.2 17 17 40.1 26.6 64.2 26.6 7.7 0 15.4-1 22.8-3l33.9 50.3 48.8-32.5-33.8-50.1c12.4-15.9 19.1-35.4 19-55.5z" fill="#E22901"/><path d="M300 0C220.4 0 144.1 31.6 87.9 87.9 31.6 144.1 0 220.4 0 300s31.6 155.9 87.9 212.1c27.9 27.9 60.9 50 97.3 65s75.4 22.8 114.8 22.8c79.6 0 155.9-31.6 212.1-87.9 44.2-56.3 75.9-132.6 75.9-212s-31.6-155.9-87.9-212.1S379.6 0 300 0m138.6 454.8-48.4 32.7-33.6-49.8c-17.9 7.4-37.2 11.2-56.6 11.1-39.5 0-77.4-15.7-105.3-43.6s-43.6-65.8-43.7-105.3c0-38.9 15.2-76.2 42.4-104 13.7-14.1 30.1-25.3 48.2-33.1 18.5-7.9 38.3-11.9 58.4-11.9 39.5 0 77.4 15.7 105.3 43.6s43.6 65.8 43.7 105.3c0 19.6-3.8 39-11.3 57.1s-18.5 34.5-32.4 48.4l33.4 49.4z" fill="#E22901"/></svg>